<svg xmlns="http://www.w3.org/2000/svg" viewBox="0 0 1000 480" fill="none"><rect width="1000" height="480" fill="#17283e"/><circle cx="810" cy="95" r="60" fill="#ffe6a0"/><path d="M0 270L170 135L310 270L535 65L730 270L865 163L1000 268V480H0Z" fill="#2b4659"/><path d="M0 340Q240 240 470 330T1000 295V480H0Z" fill="#385c63"/><path d="M0 411Q460 295 1000 417" stroke="#9aacb1" stroke-width="60"/><path d="M0 411Q460 295 1000 417" stroke="#ebf1de" stroke-width="3" stroke-dasharray="22 22"/><g transform="translate(245 220)"><path d="M-27 78V46Q-27 15 0 15Q27 15 27 46V78" fill="#5fc4b1"/><circle cy="-1" r="19" fill="#dba47c"/><path d="M-19-4Q-22-30 4-22Q24-20 19-1L11-12-8-10Z" fill="#17243c"/></g><g transform="translate(316 210)"><path d="M-27 78V46Q-27 15 0 15Q27 15 27 46V78" fill="#f18c63"/><circle cy="-1" r="19" fill="#8e5c44"/><path d="M-19-4Q-22-30 4-22Q24-20 19-1L11-12-8-10Z" fill="#17243c"/></g><g transform="translate(387 221)"><path d="M-27 78V46Q-27 15 0 15Q27 15 27 46V78" fill="#f4e4bb"/><circle cy="-1" r="19" fill="#bd8860"/><path d="M-19-4Q-22-30 4-22Q24-20 19-1L11-12-8-10Z" fill="#17243c"/></g><g transform="translate(440 235) scale(1)"><path d="M28 65L62 9Q67 0 86 0H215Q230 0 240 18L270 64L310 78Q324 83 324 100V128H0V97Q0 74 28 65Z" fill="#ffcc33"/><path d="M52 62L83 15H139V62ZM151 15H213L244 62H151Z" fill="#bce3e7"/><path d="M0 110H324" stroke="#d99a10" stroke-width="8"/><circle cx="64" cy="128" r="28" fill="#101a30"/><circle cx="260" cy="128" r="28" fill="#101a30"/><circle cx="64" cy="128" r="12" fill="#b6c9d3"/><circle cx="260" cy="128" r="12" fill="#b6c9d3"/><rect x="290" y="83" width="24" height="12" rx="6" fill="#fff2bf"/></g><ellipse cx="140" cy="345" rx="38" ry="12" fill="#c28e24"/><rect x="102" y="327" width="76" height="18" fill="#e7b337"/><ellipse cx="140" cy="327" rx="38" ry="12" fill="#ffda69"/><ellipse cx="140" cy="325" rx="38" ry="12" fill="#c28e24"/><rect x="102" y="307" width="76" height="18" fill="#e7b337"/><ellipse cx="140" cy="307" rx="38" ry="12" fill="#ffda69"/><ellipse cx="140" cy="305" rx="38" ry="12" fill="#c28e24"/><rect x="102" y="287" width="76" height="18" fill="#e7b337"/><ellipse cx="140" cy="287" rx="38" ry="12" fill="#ffda69"/><ellipse cx="850" cy="375" rx="38" ry="12" fill="#c28e24"/><rect x="812" y="357" width="76" height="18" fill="#e7b337"/><ellipse cx="850" cy="357" rx="38" ry="12" fill="#ffda69"/><ellipse cx="850" cy="355" rx="38" ry="12" fill="#c28e24"/><rect x="812" y="337" width="76" height="18" fill="#e7b337"/><ellipse cx="850" cy="337" rx="38" ry="12" fill="#ffda69"/><path d="M194 167Q322 89 444 167" stroke="#ffdc79" stroke-width="4" stroke-dasharray="7 12"/><path d="M432 149L448 169L423 174" stroke="#ffdc79" stroke-width="4"/></svg>
